<svg width="24" height="25" viewBox="0 0 24 25" fill="none" xmlns="http://www.w3.org/2000/svg">
<g opacity="0.4">
<path d="M12.8481 9.67104C12.2282 9.36227 11.6632 8.93245 11.0981 8.50264C9.92772 7.61226 8.7573 6.72188 7.09814 6.90759C5.57956 7.07757 3.7928 8.13321 2.56642 8.9843C1.60491 9.65158 1.09814 10.7717 1.09814 11.9421V20.6893C1.09814 21.5427 2.12604 22.0376 2.83441 21.5616C4.0439 20.7488 5.68683 19.8259 7.09814 19.6679C8.7573 19.4822 9.92772 20.3726 11.0981 21.263C12.2686 22.1534 13.439 23.0437 15.0981 22.858C16.6167 22.6881 18.4035 21.6324 19.6299 20.7813C20.5914 20.114 21.0981 18.9939 21.0981 17.8236V9.84868C21.0981 9.12731 20.3535 8.63305 19.6768 8.88309C18.978 9.14133 18.0893 9.44342 17.1696 9.6875V12.8828C17.1696 14.1254 16.2022 15.1328 15.0089 15.1328C13.8155 15.1328 12.8481 14.1254 12.8481 12.8828V9.67104Z" fill="white"/>
</g>
<path d="M14.25 1.92627C14.25 1.51206 14.5858 1.17627 15 1.17627H21C21.2599 1.17627 21.5013 1.31086 21.638 1.53197C21.7746 1.75308 21.7871 2.02919 21.6708 2.26168L20.8385 3.92627L21.6708 5.59086C21.7871 5.82335 21.7746 6.09946 21.638 6.32057C21.5013 6.54168 21.2599 6.67627 21 6.67627H15.75V13.1615C15.75 13.5757 15.4142 13.9115 15 13.9115C14.5858 13.9115 14.25 13.5757 14.25 13.1615V1.92627Z" fill="white"/>
</svg>
